<svg width="84" height="69" viewBox="0 0 84 69" fill="none" xmlns="http://www.w3.org/2000/svg">
<path fill-rule="evenodd" clip-rule="evenodd" d="M5.64745 16.6245H12.9374V13.6245H7.31243L9.8834 9H18.6148L20.9473 13.2495L17.8228 19.5H8.99991V22.5H18.7498C19.3183 22.5 19.8373 22.179 20.0923 21.6705L23.4283 15H27.6627L30.9702 21.666C31.2237 22.176 31.7427 22.5 32.3127 22.5H37.9961L35.4252 27H6.85043L3.23247 20.97L5.64745 16.6245ZM23.4283 3H33.5727L36.1587 8.1705C36.4137 8.679 36.9311 9 37.4996 9H47.116L50.251 14.6415L46.4711 22.203L49.1545 23.5455L52.0165 17.8185L53.7685 20.97L50.1505 27H38.8796L45.2411 15.8685L42.6356 14.3805L39.7106 19.5H33.2427L30.1662 13.2975L33.5607 8.2065L31.0647 6.5415L27.4272 12H23.6833L21.1933 7.467L23.4283 3ZM4.71446 29.271C4.98595 29.7225 5.47345 30 5.99994 30H50.9995C51.5275 30 52.015 29.7225 52.2865 29.271L56.7865 21.771C57.061 21.312 57.0715 20.739 56.8105 20.271L49.3105 6.771C49.048 6.294 48.5455 6 47.9995 6H38.4281L35.8422 0.828C35.5872 0.3195 35.0682 0 34.4997 0H22.4998C21.9313 0 21.4138 0.3195 21.1588 0.828L18.5728 6H8.99991C8.45542 6 7.95292 6.294 7.68892 6.771L0.188998 20.271C-0.0719997 20.739 -0.0614993 21.312 0.214498 21.771L4.71446 29.271ZM70.6478 39.006C69.9533 38.94 69.3083 39.354 69.0818 40.0095C68.9918 40.269 59.7984 66 35.9997 66C28.4007 66 3.91646 63.915 3.02547 37.5H62.9994C63.5139 37.5 63.9924 37.236 64.2684 36.801C64.5429 36.366 64.5759 35.82 64.3554 35.355C61.1319 28.575 63.5079 23.5515 64.8504 21.513C66.7149 22.8765 70.2758 26.2125 69.0458 31.1355C68.9258 31.611 69.0473 32.1135 69.3683 32.4825C69.6893 32.8515 70.1723 33.0435 70.6598 32.991C70.7258 32.9865 76.9238 32.367 80.5132 34.8C79.2532 36.4635 76.1303 39.5535 70.6478 39.006ZM83.5597 33.438C80.4322 30.312 75.1118 29.898 72.2708 29.913C72.7043 23.9145 68.0154 19.68 65.2074 18.177C64.6119 17.856 63.8664 17.9775 63.4029 18.477C63.1404 18.7575 57.4479 25.0305 60.7599 34.5H1.5C0.671994 34.5 0 35.1705 0 36C0 48.4035 4.57496 57.552 13.5959 63.1935C21.6763 68.2455 31.1007 69 35.9997 69C59.0079 69 69.3728 47.211 71.4968 42.066C80.0332 42.2655 83.6737 35.4945 83.8312 35.19C84.1327 34.6095 84.0232 33.9015 83.5597 33.438Z" fill="white"/>
<path d="M26.3953 47H24.2463V41.4145H26.3735C26.9481 41.4145 27.4444 41.5264 27.8626 41.75C28.2826 41.9718 28.6063 42.2918 28.8335 42.71C29.0626 43.1264 29.1772 43.6255 29.1772 44.2073C29.1772 44.7891 29.0635 45.2891 28.8363 45.7073C28.609 46.1236 28.2872 46.4436 27.8708 46.6673C27.4544 46.8891 26.9626 47 26.3953 47ZM25.7626 45.7127H26.3408C26.6172 45.7127 26.8526 45.6682 27.0472 45.5791C27.2435 45.49 27.3926 45.3364 27.4944 45.1182C27.5981 44.9 27.6499 44.5964 27.6499 44.2073C27.6499 43.8182 27.5972 43.5145 27.4917 43.2964C27.3881 43.0782 27.2353 42.9245 27.0335 42.8355C26.8335 42.7464 26.5881 42.7018 26.2972 42.7018H25.7626V45.7127ZM29.8787 47V41.4145H33.9042V42.6364H31.3951V43.5964H33.6969V44.8182H31.3951V45.7782H33.8933V47H29.8787ZM34.6562 47V41.4145H38.6817V42.6364H36.1726V43.5964H38.4744V44.8182H36.1726V45.7782H38.6708V47H34.6562ZM39.4337 47V41.4145H41.8447C42.2592 41.4145 42.6219 41.4964 42.9328 41.66C43.2437 41.8236 43.4856 42.0536 43.6583 42.35C43.831 42.6464 43.9174 42.9927 43.9174 43.3891C43.9174 43.7891 43.8283 44.1355 43.6501 44.4282C43.4737 44.7209 43.2256 44.9464 42.9056 45.1045C42.5874 45.2627 42.2156 45.3418 41.7901 45.3418H40.3501V44.1636H41.4847C41.6628 44.1636 41.8147 44.1327 41.9401 44.0709C42.0674 44.0073 42.1647 43.9173 42.2319 43.8009C42.301 43.6845 42.3356 43.5473 42.3356 43.3891C42.3356 43.2291 42.301 43.0927 42.2319 42.98C42.1647 42.8655 42.0674 42.7782 41.9401 42.7182C41.8147 42.6564 41.6628 42.6255 41.4847 42.6255H40.9501V47H39.4337ZM14.5225 56V50.4145H16.0389V54.7782H18.297V56H14.5225ZM18.91 56V50.4145H22.9355V51.6364H20.4264V52.5964H22.7282V53.8182H20.4264V54.7782H22.9245V56H18.91ZM25.1384 56H23.502L25.3457 50.4145H27.4184L29.262 56H27.6257L26.4039 51.9527H26.3602L25.1384 56ZM24.833 53.7964H27.9093V54.9309H24.833V53.7964ZM29.8 56V50.4145H32.2109C32.6255 50.4145 32.9882 50.49 33.2991 50.6409C33.61 50.7918 33.8518 51.0091 34.0245 51.2927C34.1973 51.5764 34.2836 51.9164 34.2836 52.3127C34.2836 52.7127 34.1945 53.05 34.0164 53.3245C33.84 53.5991 33.5918 53.8064 33.2718 53.9464C32.9536 54.0864 32.5818 54.1564 32.1564 54.1564H30.7164V52.9782H31.8509C32.0291 52.9782 32.1809 52.9564 32.3064 52.9127C32.4336 52.8673 32.5309 52.7955 32.5982 52.6973C32.6673 52.5991 32.7018 52.4709 32.7018 52.3127C32.7018 52.1527 32.6673 52.0227 32.5982 51.9227C32.5309 51.8209 32.4336 51.7464 32.3064 51.6991C32.1809 51.65 32.0291 51.6255 31.8509 51.6255H31.3164V56H29.8ZM33.0727 53.4364L34.4691 56H32.8218L31.4582 53.4364H33.0727ZM39.7627 50.4145V56H38.4973L36.4791 53.0655H36.4464V56H34.93V50.4145H36.2173L38.2027 53.3382H38.2464V50.4145H39.7627ZM41.9964 50.4145V56H40.48V50.4145H41.9964ZM47.5477 50.4145V56H46.2823L44.2641 53.0655H44.2314V56H42.715V50.4145H44.0023L45.9877 53.3382H46.0314V50.4145H47.5477ZM51.8923 52.2582C51.8686 52.1618 51.8314 52.0773 51.7805 52.0045C51.7295 51.93 51.6659 51.8673 51.5895 51.8164C51.515 51.7636 51.4277 51.7245 51.3277 51.6991C51.2295 51.6718 51.1214 51.6582 51.0032 51.6582C50.7486 51.6582 50.5314 51.7191 50.3514 51.8409C50.1732 51.9627 50.0368 52.1382 49.9423 52.3673C49.8495 52.5964 49.8032 52.8727 49.8032 53.1964C49.8032 53.5236 49.8477 53.8036 49.9368 54.0364C50.0259 54.2691 50.1586 54.4473 50.335 54.5709C50.5114 54.6945 50.7305 54.7564 50.9923 54.7564C51.2232 54.7564 51.415 54.7227 51.5677 54.6555C51.7223 54.5882 51.8377 54.4927 51.9141 54.3691C51.9905 54.2455 52.0286 54.1 52.0286 53.9327L52.2905 53.96H51.0141V52.88H53.4905V53.6545C53.4905 54.1636 53.3823 54.5991 53.1659 54.9609C52.9514 55.3209 52.655 55.5973 52.2768 55.79C51.9005 55.9809 51.4686 56.0764 50.9814 56.0764C50.4377 56.0764 49.9605 55.9609 49.5495 55.73C49.1386 55.4991 48.8177 55.17 48.5868 54.7427C48.3577 54.3155 48.2432 53.8073 48.2432 53.2182C48.2432 52.7564 48.3132 52.3473 48.4532 51.9909C48.595 51.6345 48.7914 51.3336 49.0423 51.0882C49.2932 50.8409 49.5832 50.6545 49.9123 50.5291C50.2414 50.4018 50.5941 50.3382 50.9705 50.3382C51.3014 50.3382 51.6086 50.3855 51.8923 50.48C52.1777 50.5727 52.4295 50.7055 52.6477 50.8782C52.8677 51.0491 53.045 51.2518 53.1795 51.4864C53.3141 51.7209 53.3959 51.9782 53.425 52.2582H51.8923Z" fill="white"/>
</svg>
