<svg width="81" height="84" viewBox="0 0 81 84" fill="none" xmlns="http://www.w3.org/2000/svg">
<path fill-rule="evenodd" clip-rule="evenodd" d="M9 75H12C12 62.391 20.1975 49.5 81 49.5V46.5C17.5545 46.5 9 60.906 9 75ZM18 84H21C21 72.651 21 55.5 81 55.5V52.5C53.4945 52.5 35.592 56.0385 26.265 63.318C18 69.768 18 77.994 18 84ZM3 21H0C0 32.094 15.0585 39.12 44.8395 42C15.0585 44.88 0 51.906 0 63H3C3 55.7175 13.134 43.5 81 43.5V40.5C13.134 40.5 3 28.2825 3 21ZM12 9H9C9 23.094 17.5545 37.5 81 37.5V34.5C20.1975 34.5 12 21.609 12 9ZM81 28.5V31.5C53.4945 31.5 35.592 27.9615 26.265 20.682C18 14.232 18 6.006 18 0H21C21 11.349 21 28.5 81 28.5Z" fill="white"/>
</svg>
